<svg xmlns="http://www.w3.org/2000/svg" width="16" height="16" viewBox="0 0 16 16"><g transform="translate(0 -1036.362)"><path fill="#fff" d="m 10.523846,1043.3772 c 0,1.3841 -1.1220511,2.5061 -2.5061684,2.5061 -1.3841173,0 -2.506168,-1.122 -2.506168,-2.5061 0,-1.3841 1.1220507,-2.5061 2.506168,-2.5061 1.3841173,0 2.5061684,1.122 2.5061684,2.5061 z"/><path fill="#c2e4f8" d="m 7.9993414,1037.8631 c -2.2233586,0 -4.2277017,1.3367 -5.0785443,3.3882 -0.8508426,2.0514 -0.3793912,4.413 1.1927616,5.9832 l 3.4549075,3.4528 c 0.2389245,0.2387 0.6247929,0.2387 0.8637174,0 l 3.4549074,-3.4528 c 1.572153,-1.5702 2.041626,-3.9318 1.190806,-5.9832 -0.850843,-2.0515 -2.855186,-3.3882 -5.0785556,-3.3882 z m 0.017813,3.0082 c 1.384121,0 2.5069566,1.1209 2.5069566,2.5049 0,1.3841 -1.1228356,2.5069 -2.5069566,2.5069 -1.3841135,0 -2.5049931,-1.1228 -2.5049931,-2.5069 0,-1.384 1.1208796,-2.5049 2.5049931,-2.5049 z"/><path fill="#249fe6" style="line-height:normal;text-indent:0;text-align:start;text-decoration-line:none;text-decoration-style:solid;text-decoration-color:#000;text-transform:none;block-progression:tb;isolation:auto;mix-blend-mode:normal" d="m 8,1037.3613 c -2.4242152,0 -4.6130613,1.4618 -5.5410156,3.6992 -0.9279623,2.2375 -0.4136791,4.8171 1.3007812,6.5293 l 3.4550782,3.4512 c 0.4290288,0.4288 1.1412813,0.4288 1.5703124,0 l 3.4550778,-3.4512 c 1.714459,-1.7122 2.228719,-4.2918 1.300782,-6.5293 -0.927954,-2.2374 -3.1168,-3.6992 -5.541016,-3.6992 z m 0,1.002 c 2.02251,0 3.841512,1.2145 4.615234,3.0801 0.773711,1.8655 0.347814,4.0095 -1.082031,5.4375 l -3.455078,3.4511 c -0.048818,0.049 -0.1074374,0.049 -0.15625,0 l -3.4550781,-3.4511 c -1.4298453,-1.428 -1.8557618,-3.572 -1.0820313,-5.4375 0.7737235,-1.8656 2.592725,-3.0801 4.6152344,-3.0801 z" color="#000" font-family="sans-serif" font-weight="400" overflow="visible" white-space="normal"/><path fill="#249fe6" style="line-height:normal;text-indent:0;text-align:start;text-decoration-line:none;text-decoration-style:solid;text-decoration-color:#000;text-transform:none;block-progression:tb;isolation:auto;mix-blend-mode:normal" d="m 8.0175781,1040.3711 c -1.6547511,0 -3.0078125,1.3511 -3.0078125,3.0059 0,1.6547 1.3530614,3.0078 3.0078125,3.0078 1.6547511,0 3.0078129,-1.3531 3.0078129,-3.0078 0,-1.6548 -1.3530618,-3.0059 -3.0078129,-3.0059 z m 0,1 c 1.1134835,0 2.0058589,0.8924 2.0058599,2.0059 0,1.1134 -0.8923764,2.0058 -2.0058599,2.0058 -1.1134835,0 -2.0058593,-0.8924 -2.0058593,-2.0058 0,-1.1135 0.8923758,-2.0059 2.0058593,-2.0059 z" color="#000" font-family="sans-serif" font-weight="400" overflow="visible" white-space="normal"/></g></svg>